<?xml version="1.0" encoding="utf-8"?>
<!DOCTYPE svg PUBLIC "-//W3C//DTD SVG 1.1//EN" "http://www.w3.org/Graphics/SVG/1.1/DTD/svg11.dtd">
<svg version="1.1" id="Contours" xmlns="http://www.w3.org/2000/svg" xmlns:xlink="http://www.w3.org/1999/xlink" x="0px" y="0px" width="150" height="150" viewBox="0.000000 0.000000 466.675903 396.791199" xml:space="preserve" stroke="black" fill="none" stroke-linecap='round' stroke-linejoin='round'>
   <defs>
      <linearGradient id="Gradient" x1="0" x2="0" y1="0" y2="1">
         <stop offset="0%" stop-color="#39148B"/>
         <stop offset="50%" stop-color="#9101C2"/>
         <stop offset="100%" stop-color="#000000" stop-opacity="0.9"/>
      </linearGradient>
      <linearGradient id="TextGradient" x1="0" x2="0" y1="0" y2="1">
         <stop offset="0%" stop-color="#D9C4F0"/>
         <stop offset="100%" stop-color="#9101C2"/>
      </linearGradient>
   </defs>
   <g>
      <path d="M 283.3 67.1 C 290.1 66.1 296.3 65.1 302.6 64.2 C 303.7 64.1 304.9 65 306.1 65.4 C 285.5 88 278.4 119.6 271.4 148.7 C 269.6 157.3 275.2 162.7 281.5 167.1 C 290.7 175 322.1 184.9 299.1 196.9 C 292.4 200.2 284.5 204.5 282.7 212 C 306.6 198.9 294.2 195.9 311.3 226.6 C 322.1 239.2 245.1 246.2 239.3 251.8 C 257.7 254.7 277.9 247.5 296.1 243.1 C 301.8 243.1 314.9 233.3 317.6 239.7 C 323.3 251.2 327.2293586930997 263.91829875690746 335.3 273.9 C 337.41309167266115 276.5134604465404 335.52714492567026 273.91694875662546 338.4 284.1 C 353.6 281.2 375 291.6 390.4 295.3 C 412.9 304.8 438.7 311 455.5 329.9 C 466.7 341.3 457.8 360.1 442 359.1 C 413.2 360.1 386 347.2 361.3 334 C 373.9 328.7 388.4 327.4 400.3 321 C 375.7 319.6 353.1 334.9 330.5 343.4 C 310.8 351.6 291.1 360.3 271 367.6 C 174 396.8 123.7 333.3 40.3 308.6 C 70.9 299.6 103.7 295.8 135.1 288.9 C 144.4 285.8 145.6 242.7 149.4 231.5 C 151.6 218.1 153.4 201.8 169 198.1 C 172.6 197.8 207.6 184.2 194.9 180 C 185.6 177 172.1 172.9 178.8 160.2 C 189.6 136.4 208.9 117.9 224.7 97.3 C 240.5 79 256.1 60.6 271.8 42.3 C 297.6 0 332.4 49.3 354.5 69.6 C 364.2 74.8 341.9 131.4 330 123 C 322.5 119.5 293.4 116.2 294.7 106.6 C 300 96.7 303.1 84.2 310.6 76.1 C 314.2 82.8 304.1 102.7 315.8 102.3 C 321.6 103.2 330 107.7 332.4 98.9 C 338.3 85.7 341.1 69.1 322.8 63.4 C 309.6 59.9 289 54.8 279.4 67.7 C 280.6 67.5 281.7 67.3 283.3 67.1" fill="url(#Gradient)" stroke="none"/>
      <path d='M30.6 312.4 C58.5 316.7 84.6 329.1 108.3 343.6 C80.6 349.8 51.8 358.7 23.7 350.1 C0.0 341.8 12.1 318.6 30.6 312.4 ' fill="#000000" stroke="none"/>
   </g>
   <g transform="rotate(-25) translate(-160, 110)">
     <text x="245" y="330" font-family="cursive" font-size="80" fill="#FFFFFF" stroke="none">wiz</text>
   </g>
</svg>
